<svg width="88" height="82" viewBox="0 0 88 82" fill="none" xmlns="http://www.w3.org/2000/svg">
<g clip-path="url(#clip0_318_186)">
<path d="M62.1911 7.50098H25.2013C22.427 7.50098 20.178 9.64457 20.178 12.2888V47.5447C20.178 50.189 22.427 52.3326 25.2013 52.3326H62.1911C64.9654 52.3326 67.2144 50.189 67.2144 47.5447V12.2888C67.2144 9.64457 64.9654 7.50098 62.1911 7.50098Z" fill="#369FFF"/>
<path d="M28.6262 13.921C28.6262 13.0196 27.8594 12.2888 26.9137 12.2888C25.9679 12.2888 25.2012 13.0196 25.2012 13.921V42.8657C25.2012 43.7671 25.9679 44.4979 26.9137 44.4979C27.8594 44.4979 28.6262 43.7671 28.6262 42.8657V13.921Z" fill="#F7F7F7"/>
<path d="M33.4211 13.921C33.4211 13.0196 32.6544 12.2888 31.7086 12.2888C30.7628 12.2888 29.9961 13.0196 29.9961 13.921V21.9733C29.9961 22.8748 30.7628 23.6056 31.7086 23.6056C32.6544 23.6056 33.4211 22.8748 33.4211 21.9733V13.921Z" fill="#F7F7F7"/>
<path d="M33.4211 26.5434C33.4211 25.6419 32.6544 24.9111 31.7086 24.9111C30.7628 24.9111 29.9961 25.6419 29.9961 26.5434V37.6424C29.9961 38.5439 30.7628 39.2747 31.7086 39.2747C32.6544 39.2747 33.4211 38.5439 33.4211 37.6424V26.5434Z" fill="#F7F7F7"/>
<path d="M38.2162 13.921C38.2162 13.0196 37.4495 12.2888 36.5038 12.2888C35.558 12.2888 34.7913 13.0196 34.7913 13.921V37.6426C34.7913 38.5441 35.558 39.2748 36.5038 39.2748C37.4495 39.2748 38.2162 38.5441 38.2162 37.6426V13.921Z" fill="#F7F7F7"/>
<path d="M43.0112 13.921C43.0112 13.0196 42.2445 12.2888 41.2987 12.2888C40.3529 12.2888 39.5862 13.0196 39.5862 13.921V37.6426C39.5862 38.5441 40.3529 39.2748 41.2987 39.2748C42.2445 39.2748 43.0112 38.5441 43.0112 37.6426V13.921Z" fill="#F7F7F7"/>
<path d="M47.8061 13.921C47.8061 13.0196 47.0394 12.2888 46.0936 12.2888C45.1478 12.2888 44.3811 13.0196 44.3811 13.921V37.6426C44.3811 38.5441 45.1478 39.2748 46.0936 39.2748C47.0394 39.2748 47.8061 38.5441 47.8061 37.6426V13.921Z" fill="#F7F7F7"/>
<path d="M52.601 13.921C52.601 13.0196 51.8343 12.2888 50.8885 12.2888C49.9427 12.2888 49.176 13.0196 49.176 13.921V37.6426C49.176 38.5441 49.9427 39.2748 50.8885 39.2748C51.8343 39.2748 52.601 38.5441 52.601 37.6426V13.921Z" fill="#F7F7F7"/>
<path d="M57.3959 13.921C57.3959 13.0196 56.6292 12.2888 55.6834 12.2888C54.7377 12.2888 53.9709 13.0196 53.9709 13.921V18.9265C53.9709 19.8279 54.7377 20.5587 55.6834 20.5587C56.6292 20.5587 57.3959 19.8279 57.3959 18.9265V13.921Z" fill="#F7F7F7"/>
<path d="M57.3959 32.6371C57.3959 31.7357 56.6292 31.0049 55.6834 31.0049C54.7377 31.0049 53.9709 31.7357 53.9709 32.6371V37.6426C53.9709 38.544 54.7377 39.2748 55.6834 39.2748C56.6292 39.2748 57.3959 38.544 57.3959 37.6426V32.6371Z" fill="#F7F7F7"/>
<path d="M62.1911 13.921C62.1911 13.0196 61.4244 12.2888 60.4786 12.2888C59.5328 12.2888 58.7661 13.0196 58.7661 13.921V42.8657C58.7661 43.7671 59.5328 44.4979 60.4786 44.4979C61.4244 44.4979 62.1911 43.7671 62.1911 42.8657V13.921Z" fill="#F7F7F7"/>
</g>
<g clip-path="url(#clip1_318_186)">
<path d="M16.9993 67.0845C16.9993 67.4116 16.9578 67.707 16.8748 67.9707C16.7917 68.2295 16.6819 68.459 16.5452 68.6592C16.4084 68.8545 16.2498 69.0229 16.0691 69.1646C15.8884 69.3013 15.698 69.4136 15.4978 69.5015C15.3025 69.5894 15.1023 69.6553 14.8972 69.6992C14.697 69.7383 14.5066 69.7578 14.3259 69.7578H10.8909C10.5637 69.7578 10.2708 69.7163 10.012 69.6333C9.75317 69.5503 9.52368 69.4404 9.32349 69.3037C9.12817 69.1621 8.95972 69.001 8.81812 68.8203C8.6814 68.6396 8.56909 68.4517 8.4812 68.2563C8.39331 68.0562 8.32739 67.856 8.28345 67.6558C8.24438 67.4507 8.22485 67.2603 8.22485 67.0845V64.5063C8.22485 64.0181 8.31274 63.6055 8.48853 63.2686C8.66919 62.9268 8.89136 62.6509 9.15503 62.4409C9.42358 62.2261 9.71411 62.0723 10.0266 61.9795C10.3391 61.8867 10.6272 61.8403 10.8909 61.8403H14.3259V63.7446H10.9055C10.6516 63.7446 10.4587 63.8105 10.3269 63.9424C10.1951 64.0693 10.1292 64.2573 10.1292 64.5063V67.0698C10.1292 67.3286 10.1926 67.5239 10.3196 67.6558C10.4514 67.7876 10.6418 67.8535 10.8909 67.8535H14.3259C14.5847 67.8535 14.7776 67.7876 14.9045 67.6558C15.0315 67.5239 15.095 67.3335 15.095 67.0845V58.4932H16.9993V67.0845ZM28.179 67.0845C28.179 67.4116 28.1375 67.707 28.0544 67.9707C27.9714 68.2295 27.8616 68.459 27.7249 68.6592C27.5881 68.8545 27.4294 69.0229 27.2488 69.1646C27.0681 69.3013 26.8777 69.4136 26.6775 69.5015C26.4822 69.5894 26.282 69.6553 26.0769 69.6992C25.8767 69.7383 25.6863 69.7578 25.5056 69.7578H22.0706C21.8069 69.7578 21.5188 69.7114 21.2063 69.6187C20.8938 69.5259 20.6033 69.3745 20.3347 69.1646C20.071 68.9497 19.8489 68.6738 19.6682 68.3369C19.4924 67.9951 19.4045 67.5776 19.4045 67.0845V64.5063C19.4045 64.0181 19.4924 63.6055 19.6682 63.2686C19.8489 62.9268 20.071 62.6509 20.3347 62.4409C20.6033 62.2261 20.8938 62.0723 21.2063 61.9795C21.5188 61.8867 21.8069 61.8403 22.0706 61.8403H25.5056C25.9939 61.8403 26.4089 61.9282 26.7507 62.104C27.0925 62.2798 27.3684 62.502 27.5784 62.7705C27.7883 63.0342 27.9397 63.3223 28.0325 63.6348C28.1301 63.9473 28.179 64.2378 28.179 64.5063V67.0845ZM26.2747 64.521C26.2747 64.2573 26.2087 64.062 26.0769 63.9351C25.9451 63.8081 25.7546 63.7446 25.5056 63.7446H22.0852C21.8313 63.7446 21.6384 63.8105 21.5066 63.9424C21.3748 64.0693 21.3088 64.2573 21.3088 64.5063V67.0845C21.3088 67.3335 21.3748 67.5239 21.5066 67.6558C21.6384 67.7876 21.8313 67.8535 22.0852 67.8535H25.5056C25.7644 67.8535 25.9573 67.7876 26.0842 67.6558C26.2112 67.5239 26.2747 67.3335 26.2747 67.0845V64.521ZM38.2234 69.7578H33.0598C32.7961 69.7578 32.5081 69.7114 32.1956 69.6187C31.8831 69.5259 31.5925 69.3745 31.324 69.1646C31.0603 68.9497 30.8381 68.6738 30.6575 68.3369C30.4817 67.9951 30.3938 67.5776 30.3938 67.0845V64.5063C30.3938 64.3257 30.4133 64.1353 30.4524 63.9351C30.4963 63.7349 30.5623 63.5371 30.6501 63.3418C30.738 63.1416 30.8503 62.9512 30.9871 62.7705C31.1287 62.5898 31.2971 62.4312 31.4924 62.2944C31.6926 62.1577 31.9221 62.0479 32.1809 61.9648C32.4397 61.8818 32.7327 61.8403 33.0598 61.8403H38.2234V63.7446H33.0598C32.8108 63.7446 32.6204 63.8081 32.4885 63.9351C32.3616 64.062 32.2981 64.2573 32.2981 64.521V67.0845C32.2981 67.3335 32.364 67.5239 32.4958 67.6558C32.6277 67.7876 32.8206 67.8535 33.0745 67.8535H38.2234V69.7578ZM49.2786 67.0845C49.2786 67.4116 49.2371 67.707 49.1541 67.9707C49.071 68.2295 48.9612 68.459 48.8245 68.6592C48.6877 68.8545 48.5291 69.0229 48.3484 69.1646C48.1677 69.3013 47.9773 69.4136 47.7771 69.5015C47.5818 69.5894 47.384 69.6553 47.1838 69.6992C46.9836 69.7383 46.7932 69.7578 46.6125 69.7578H43.1775V67.8535H46.6125C46.8665 67.8535 47.0569 67.7876 47.1838 67.6558C47.3108 67.5239 47.3743 67.3335 47.3743 67.0845V64.521C47.3743 64.2573 47.3083 64.062 47.1765 63.9351C47.0496 63.8081 46.8616 63.7446 46.6125 63.7446H43.1921C42.9333 63.7446 42.738 63.8105 42.6062 63.9424C42.4744 64.0693 42.4084 64.2573 42.4084 64.5063V72.2334H40.5042V64.5063C40.5042 64.1792 40.5457 63.8862 40.6287 63.6274C40.7117 63.3687 40.8215 63.1416 40.9583 62.9463C41.0999 62.7461 41.261 62.5776 41.4417 62.4409C41.6223 62.2993 41.8103 62.1846 42.0056 62.0967C42.2058 62.0088 42.406 61.9453 42.6062 61.9062C42.8113 61.8623 43.0017 61.8403 43.1775 61.8403H46.6125C46.9397 61.8403 47.2327 61.8818 47.4915 61.9648C47.7502 62.0479 47.9773 62.1577 48.1726 62.2944C48.3728 62.4312 48.5413 62.5898 48.678 62.7705C48.8196 62.9512 48.9343 63.1416 49.0222 63.3418C49.1101 63.5371 49.1736 63.7349 49.2126 63.9351C49.2566 64.1353 49.2786 64.3257 49.2786 64.5063V67.0845ZM60.2678 67.0845C60.2678 67.4116 60.2263 67.707 60.1433 67.9707C60.0603 68.2295 59.9504 68.459 59.8137 68.6592C59.677 68.8545 59.5183 69.0229 59.3376 69.1646C59.157 69.3013 58.9666 69.4136 58.7664 69.5015C58.571 69.5894 58.3708 69.6553 58.1658 69.6992C57.9656 69.7383 57.7751 69.7578 57.5945 69.7578H54.1594C53.8958 69.7578 53.6077 69.7114 53.2952 69.6187C52.9827 69.5259 52.6921 69.3745 52.4236 69.1646C52.1599 68.9497 51.9377 68.6738 51.7571 68.3369C51.5813 67.9951 51.4934 67.5776 51.4934 67.0845V64.5063C51.4934 64.0181 51.5813 63.6055 51.7571 63.2686C51.9377 62.9268 52.1599 62.6509 52.4236 62.4409C52.6921 62.2261 52.9827 62.0723 53.2952 61.9795C53.6077 61.8867 53.8958 61.8403 54.1594 61.8403H57.5945C58.0828 61.8403 58.4978 61.9282 58.8396 62.104C59.1814 62.2798 59.4573 62.502 59.6672 62.7705C59.8772 63.0342 60.0286 63.3223 60.1213 63.6348C60.219 63.9473 60.2678 64.2378 60.2678 64.5063V67.0845ZM58.3635 64.521C58.3635 64.2573 58.2976 64.062 58.1658 63.9351C58.0339 63.8081 57.8435 63.7446 57.5945 63.7446H54.1741C53.9202 63.7446 53.7273 63.8105 53.5955 63.9424C53.4636 64.0693 53.3977 64.2573 53.3977 64.5063V67.0845C53.3977 67.3335 53.4636 67.5239 53.5955 67.6558C53.7273 67.7876 53.9202 67.8535 54.1741 67.8535H57.5945C57.8533 67.8535 58.0461 67.7876 58.1731 67.6558C58.3 67.5239 58.3635 67.3335 58.3635 67.0845V64.521ZM70.2976 67.0845C70.2976 67.4116 70.2561 67.707 70.1731 67.9707C70.0901 68.2295 69.9802 68.459 69.8435 68.6592C69.7068 68.8545 69.5481 69.0229 69.3674 69.1646C69.1868 69.3013 68.9963 69.4136 68.7961 69.5015C68.6008 69.5894 68.4006 69.6553 68.1956 69.6992C67.9954 69.7383 67.8049 69.7578 67.6243 69.7578H62.468V67.8535H67.6096C67.8684 67.8535 68.0637 67.7876 68.1956 67.6558C68.3274 67.5239 68.3933 67.3335 68.3933 67.0845C68.3689 66.5767 68.1125 66.3228 67.6243 66.3228H64.6726C64.2527 66.3228 63.8962 66.2495 63.6033 66.103C63.3103 65.9565 63.071 65.7734 62.8855 65.5537C62.7048 65.334 62.573 65.0972 62.49 64.8433C62.4119 64.5894 62.3728 64.3525 62.3728 64.1328C62.3728 63.708 62.4485 63.3516 62.5999 63.0635C62.7512 62.7705 62.9417 62.5337 63.1711 62.353C63.4006 62.1724 63.6497 62.043 63.9182 61.9648C64.1868 61.8818 64.4382 61.8403 64.6726 61.8403H69.3528V63.7446H64.6873C64.5896 63.7446 64.5115 63.7568 64.4529 63.7812C64.3992 63.8008 64.3577 63.8301 64.3284 63.8691C64.304 63.9033 64.2893 63.9424 64.2844 63.9863C64.2795 64.0254 64.2771 64.0645 64.2771 64.1035C64.282 64.1816 64.2966 64.2427 64.321 64.2866C64.3455 64.3306 64.3748 64.3623 64.4089 64.3818C64.448 64.4014 64.4895 64.4136 64.5334 64.4185C64.5823 64.4185 64.6287 64.4185 64.6726 64.4185H67.6243C68.1125 64.4185 68.5276 64.5063 68.8694 64.6821C69.2112 64.8579 69.4871 65.0801 69.697 65.3486C69.907 65.6123 70.0583 65.9004 70.1511 66.2129C70.2488 66.5254 70.2976 66.8159 70.2976 67.0845ZM79.4558 63.7446H76.1306V69.7578H74.2043V63.7446H71.7288V61.8403H74.2043V59.2549H76.1306V61.8403H79.4558V63.7446Z" fill="#369FFF"/>
</g>
<defs>
<clipPath id="clip0_318_186">
<rect width="47.4826" height="45.2568" fill="white" transform="translate(20.178 7.50098)"/>
</clipPath>
<clipPath id="clip1_318_186">
<rect width="73" height="19" fill="white" transform="translate(7.41919 54.7578)"/>
</clipPath>
</defs>
</svg>